<svg width="365" height="275" viewBox="0 0 365 275" fill="none" xmlns="http://www.w3.org/2000/svg">
<path fill-rule="evenodd" clip-rule="evenodd" d="M107.504 100.712C89.5 98.2121 51.4999 105.711 48.5 134.212C45.5002 162.713 83.0036 172.712 98.5036 172.712C114.004 172.712 128.004 165.212 128.004 165.212C148.004 193.712 177.5 209.213 216.004 208.212C254.507 207.211 279.764 184.212 286 177.212C292.236 170.212 337.5 122.712 303.004 53.712L303.504 128.712C303.504 128.712 304 129.212 304.5 131.212C305 133.212 305 134.212 304 137.212C303 140.212 302 148.212 285 156.212C268 164.212 255.358 156.712 251.504 153.712C247.649 150.712 246 147.212 246 142.212C246 137.212 248.504 132.212 250.5 129.712C252.496 127.212 259 122.212 266.5 118.712C274 115.212 285.5 115.212 291.504 117.712V81.7121L239.504 94.7121L241.504 145.712C241.504 145.712 242.504 147.212 242.5 149.712C242.496 152.212 239 161.712 232 166.712C225 171.712 214.5 176.212 203 175.212C191.5 174.212 185.5 169.212 183.5 161.212C181.5 153.212 189 143.212 196 138.712C203 134.212 210 132.212 216.5 131.712C223 131.212 229.004 133.712 229.004 133.712L227.504 64.212L298.504 46.212C277.005 19.0034 256.007 5.21137 227.504 1.21201C199 -2.78734 173.5 3.21217 153.504 17.712C133.507 32.2119 124.004 46.712 119 56.712C113.996 66.712 108.466 82.4113 107.504 100.712ZM130.5 116.213L158 23.2129C177.549 33.5683 185.056 42.4782 192.5 63.7129C197.927 91.9584 194.44 102.889 182 117.713C184.345 90.7807 180.547 76.3755 166.5 51.7129L141.5 136.213C140.704 143.638 139.174 147.468 133 153.213C106.894 168.612 86.5 166.5 66.5001 153.213C53.1442 140.194 54.0005 127.713 68.5003 118C83.0001 108.287 105.733 103.67 130.5 116.213Z" fill="black"/>
<path d="M0 239.713V274.213H5.5V248.713L16 270.213H20.5L31 248.713V274.213H36.5V239.713H29.5L18.5 262.213L7 239.713H0Z" fill="black"/>
<path d="M53.5 239.713V260.713C54.5 271.213 61.5 274.213 69.5 274.213C77.5 274.213 82.5 271.713 84.5 260.713V239.713H78V260.713C77.6402 266.872 75.5 269.213 69.5 269.213C63.5 269.213 60.2546 266.993 59.5 260.713V239.713H53.5Z" fill="black"/>
<path d="M124.5 242.713C120.094 240.416 117 239.213 111.5 239.213C103.801 240.103 102 243.213 100.5 246.713C99 250.213 101.551 255.073 106.5 257.213L106.504 257.214C114.654 259.496 119 260.713 119 264.213C119 267.713 117 268.213 114.5 268.713C108.265 268.93 105.209 267.975 100.5 263.713L98 268.713C102.905 272.836 106.039 274.143 112.5 274.213C118.768 273.527 122 272.213 124 268.713C125 265.713 125 263.213 124.5 260.713C122.418 257.035 120.025 255.723 114.5 254.213C110.248 253.202 106 251.213 106.5 248.213C107.361 245.259 109.102 244.678 113.5 244.713C117.563 245.204 119.414 246.013 122.5 247.713L124.5 242.713Z" fill="black"/>
<path d="M140.5 239.713V274.213H147V239.713H140.5Z" fill="black"/>
<path d="M193.5 244.713L190 248.713C186 245.213 182.5 243.713 177 245.213C171.5 246.713 168 250.713 168 256.713C168 262.713 171 266.213 175.5 268.213C180 270.213 185.864 268.662 190 265.213L193.5 268.713C189.073 272.218 187 274.213 179.5 274.213C172 274.213 162 268.213 162 256.713C162 245.213 172 239.713 179 239.713C186 239.713 189.241 241.392 193.5 244.713Z" fill="black"/>
<path d="M225.5 239.713L237 274.213H243L251 247.713L259.5 274.213H265.5L277 239.713H271L263 267.213L254.5 239.713H248L240 267.213L231.5 239.713H225.5Z" fill="black"/>
<path d="M290 239.713V274.213H296V239.713H290Z" fill="black"/>
<path d="M314 239.713V274.213H319.5V265.713L325.5 259.213L337 274.213H344L329.5 254.713L343 239.713H336L319.5 257.213V239.713H314Z" fill="black"/>
<path d="M358 239.713V274.213H364.5V239.713H358Z" fill="black"/>
</svg>
